<svg width="426" height="95" viewBox="0 0 426 95" fill="none" xmlns="http://www.w3.org/2000/svg">
<path d="M56.8394 3.61822L16.04 85.5274C13.8723 89.8794 17.025 95 21.8723 95H103.471C108.318 95 111.471 89.8794 109.303 85.5274L68.5038 3.61823C66.1008 -1.20607 59.2424 -1.20608 56.8394 3.61822Z" fill="#03BE98"/>
<path d="M41.3822 3.61822L0.694899 85.5274C-1.46693 89.8794 1.67711 95 6.51111 95H87.8856C92.7196 95 95.8637 89.8794 93.7018 85.5274L53.0146 3.61823C50.6182 -1.20607 43.7786 -1.20608 41.3822 3.61822Z" fill="#0366B9"/>
<path d="M134.539 23.7727H141.411L157.569 63.2393H158.126L174.284 23.7727H181.156V71.3184H175.77V35.1948H175.306L160.448 71.3184H155.247L140.389 35.1948H139.925V71.3184H134.539V23.7727Z" fill="#0378DA"/>
<path d="M219.786 65.8141V71.3184H189.038V65.8141H219.786ZM218.268 23.7727V29.277H187.899V23.7727H218.268ZM209.062 47.3083V47.9726L190.462 71.3184H186.381V66.3835L201.85 47.6879L186.381 28.8025V23.7727H190.462L209.062 47.3083Z" fill="#0378DA"/>
<path d="M225.011 28.8801V23.7727H260.671V28.8801H245.72V71.3184H239.962V28.8801H225.011Z" fill="#0378DA"/>
<path d="M265.895 71.3184L283.354 23.7727H289.297L306.755 71.3184H265.895ZM273.789 66.2109H298.862L286.511 31.2946H286.139L273.789 66.2109Z" fill="#0378DA"/>
<path d="M317.458 49.8671V71.3184H311.979V23.7727H317.458V41.2309H317.922C318.758 39.3891 320.012 37.9265 321.683 36.8431C323.37 35.7443 325.614 35.1948 328.416 35.1948C330.846 35.1948 332.974 35.6823 334.8 36.6574C336.626 37.617 338.042 39.095 339.048 41.0916C340.07 43.0727 340.581 45.5954 340.581 48.6599V71.3184H335.102V49.0313C335.102 46.199 334.367 44.009 332.896 42.4613C331.441 40.8981 329.422 40.1165 326.837 40.1165C325.042 40.1165 323.432 40.4957 322.008 41.2541C320.6 42.0125 319.485 43.1191 318.665 44.5739C317.86 46.0288 317.458 47.7932 317.458 49.8671Z" fill="#0378DA"/>
<path d="M386.663 47.5455C386.663 52.4267 385.782 56.6449 384.019 60.2003C382.257 63.7557 379.839 66.4975 376.765 68.4259C373.692 70.3542 370.182 71.3184 366.235 71.3184C362.288 71.3184 358.778 70.3542 355.704 68.4259C352.631 66.4975 350.213 63.7557 348.45 60.2003C346.688 56.6449 345.806 52.4267 345.806 47.5455C345.806 42.6644 346.688 38.4462 348.45 34.8908C350.213 31.3354 352.631 28.5936 355.704 26.6652C358.778 24.7369 362.288 23.7727 366.235 23.7727C370.182 23.7727 373.692 24.7369 376.765 26.6652C379.839 28.5936 382.257 31.3354 384.019 34.8908C385.782 38.4462 386.663 42.6644 386.663 47.5455ZM381.24 47.5455C381.24 43.5382 380.569 40.1561 379.229 37.3992C377.903 34.6422 376.103 32.5557 373.828 31.1396C371.568 29.7234 369.037 29.0154 366.235 29.0154C363.433 29.0154 360.894 29.7234 358.619 31.1396C356.36 32.5557 354.559 34.6422 353.219 37.3992C351.893 40.1561 351.23 43.5382 351.23 47.5455C351.23 51.5529 351.893 54.935 353.219 57.6919C354.559 60.4489 356.36 62.5354 358.619 63.9515C360.894 65.3676 363.433 66.0757 366.235 66.0757C369.037 66.0757 371.568 65.3676 373.828 63.9515C376.103 62.5354 377.903 60.4489 379.229 57.6919C380.569 54.935 381.24 51.5529 381.24 47.5455Z" fill="#0378DA"/>
<path d="M419.083 35.9293C418.813 33.648 417.717 31.8771 415.796 30.6164C413.875 29.3557 411.519 28.7254 408.727 28.7254C406.686 28.7254 404.9 29.0556 403.369 29.7159C401.854 30.3763 400.668 31.2843 399.812 32.4399C398.972 33.5955 398.552 34.9087 398.552 36.3795C398.552 37.6102 398.844 38.6682 399.43 39.5537C400.03 40.4242 400.796 41.1521 401.726 41.7374C402.657 42.3077 403.632 42.7805 404.653 43.1557C405.673 43.5159 406.611 43.8085 407.467 44.0336L412.149 45.2943C413.35 45.6095 414.686 46.0447 416.156 46.6C417.642 47.1553 419.06 47.9132 420.411 48.8738C421.777 49.8193 422.902 51.0349 423.788 52.5207C424.673 54.0065 425.116 55.83 425.116 57.9912C425.116 60.4825 424.463 62.7337 423.158 64.7448C421.867 66.7559 419.976 68.3543 417.485 69.5399C415.008 70.7256 411.999 71.3184 408.457 71.3184C405.155 71.3184 402.296 70.7856 399.88 69.72C397.479 68.6544 395.588 67.1686 394.207 65.2626C392.841 63.3566 392.068 61.1429 391.888 58.6215H397.651C397.801 60.3625 398.387 61.8032 399.407 62.9439C400.443 64.0695 401.749 64.9099 403.324 65.4652C404.915 66.0055 406.626 66.2757 408.457 66.2757C410.588 66.2757 412.502 65.9305 414.198 65.2401C415.894 64.5347 417.237 63.5592 418.227 62.3135C419.218 61.0528 419.713 59.582 419.713 57.9011C419.713 56.3703 419.286 55.1246 418.43 54.1641C417.575 53.2036 416.449 52.4232 415.053 51.8229C413.657 51.2225 412.149 50.6972 410.528 50.247L404.855 48.6261C401.253 47.5906 398.402 46.1123 396.301 44.1912C394.199 42.2702 393.149 39.7563 393.149 36.6497C393.149 34.0683 393.847 31.817 395.243 29.896C396.653 27.96 398.544 26.4592 400.916 25.3936C403.302 24.313 405.966 23.7727 408.907 23.7727C411.879 23.7727 414.52 24.3055 416.832 25.3711C419.143 26.4216 420.974 27.8624 422.325 29.6934C423.69 31.5244 424.411 33.603 424.486 35.9293H419.083Z" fill="#0378DA"/>
</svg>
